<svg height="496pt" viewBox="0 -84 496.2737 496" width="496pt" xmlns="http://www.w3.org/2000/svg"><path d="m400 113.335938c-5.292969-.804688-10.644531-1.207032-16-1.199219h-272c-5.355469-.007813-10.703125.394531-16 1.199219-47.375 7.394531-83.554688 46.21875-87.59375 93.992187-4.039062 47.777344 25.105469 92.125 70.566406 107.367187 45.457032 15.246094 95.449219-2.566406 121.027344-43.117187v.558594h96v-.558594c25.578125 40.550781 75.570312 58.363281 121.027344 43.117187 45.460937-15.242187 74.605468-59.589843 70.566406-107.367187-4.039062-47.773437-40.21875-86.597656-87.59375-93.992187zm-288 182.800781c-44.183594 0-80-35.816407-80-80 0-44.183594 35.816406-80 80-80s80 35.816406 80 80c0 44.183593-35.816406 80-80 80zm104-56 24-24zm40 0 24-24zm128 56c-44.183594 0-80-35.816407-80-80 0-44.183594 35.816406-80 80-80s80 35.816406 80 80c0 44.183593-35.816406 80-80 80zm0 0" fill="#acabb1"/><path d="m112 136.136719c-44.183594 0-80 35.816406-80 80 0 44.183593 35.816406 80 80 80s80-35.816407 80-80c0-44.183594-35.816406-80-80-80zm48 96h-32v32h-32v-32h-32v-32h32v-32h32v32h32zm0 0" fill="#d1d3d4"/><path d="m371.3125 180.824219c-6.25-6.25-6.25-16.382813 0-22.632813l-45.257812 45.257813c6.25-6.25 16.382812-6.25 22.632812 0s6.25 16.382812 0 22.632812l45.257812-45.257812c-6.25 6.253906-16.382812 6.253906-22.632812 0zm0 0" fill="#414042"/><path d="m419.3125 228.824219c-6.25-6.25-6.25-16.382813 0-22.632813l-45.257812 45.257813c6.25-6.25 16.382812-6.25 22.632812 0s6.25 16.382812 0 22.632812l45.257812-45.257812c-6.25 6.253906-16.382812 6.253906-22.632812 0zm0 0" fill="#414042"/><path d="m384 136.136719c-44.183594 0-80 35.816406-80 80 0 44.183593 35.816406 80 80 80s80-35.816407 80-80c0-44.183594-35.816406-80-80-80zm-57.945312 89.945312c-6.25-6.25-6.25-16.382812 0-22.632812l45.257812-45.257813c6.25-6.25 16.382812-6.25 22.632812 0s6.25 16.382813 0 22.632813l-45.257812 45.257812c-6.25 6.25-16.382812 6.25-22.632812 0zm115.890624 2.742188-45.257812 45.257812c-6.25 6.25-16.382812 6.25-22.632812 0s-6.25-16.382812 0-22.632812l45.257812-45.257813c6.25-6.25 16.382812-6.25 22.632812 0s6.25 16.382813 0 22.632813zm0 0" fill="#d1d3d4"/><path d="m128 168.136719h-32v32h-32v32h32v32h32v-32h32v-32h-32zm0 0" fill="#414042"/><path d="m348.6875 203.449219c-6.25-6.246094-16.378906-6.246094-22.625.003906-6.246094 6.246094-6.246094 16.375 0 22.625 6.246094 6.246094 16.375 6.25 22.625.003906 6.253906-6.25 6.253906-16.382812 0-22.632812zm0 0" fill="#91dc5a"/><path d="m398.625 169.511719c0 8.835937-7.164062 16-16 16s-16-7.164063-16-16c0-8.835938 7.164062-16 16-16s16 7.164062 16 16zm0 0" fill="#006df0"/><path d="m396.6875 251.449219c-6.25-6.246094-16.378906-6.246094-22.625.003906-6.246094 6.246094-6.246094 16.375 0 22.625 6.246094 6.246094 16.375 6.25 22.625.003906 6.253906-6.25 6.253906-16.382812 0-22.632812zm0 0" fill="#ffda44"/><path d="m446.625 217.511719c0 8.835937-7.164062 16-16 16s-16-7.164063-16-16c0-8.835938 7.164062-16 16-16s16 7.164062 16 16zm0 0" fill="#d80027"/><g fill="#231f20"><path d="m401.207031 105.425781c-5.695312-.863281-11.445312-1.292969-17.207031-1.289062h-128v-16c0-8.835938-7.164062-16-16-16h-56v-16h144c8.835938 0 16-7.164063 16-16v-24c0-8.835938-7.164062-16-16-16h-320c-4.417969 0-8 3.582031-8 8s3.582031 8 8 8h320v24h-144c-8.835938 0-16 7.164062-16 16v16c0 8.835937 7.164062 16 16 16h56v16h-128c-29.722656-.0625-58.25 11.714843-79.265625 32.734375-21.019531 21.015625-32.796875 49.542968-32.734375 79.265625.0273438 48.910156 31.789062 92.148437 78.453125 106.800781 46.667969 14.648438 97.445313-2.679688 125.417969-42.800781h88.257812c20.855469 30.148437 55.214844 48.097656 91.871094 48 58.613281.144531 107.425781-44.929688 111.941406-103.371094s-36.792968-110.476563-94.734375-119.339844zm-17.207031 206.710938c-32.996094.101562-63.707031-16.835938-81.222656-44.800781-1.972656-3.089844-5.8125-4.414063-9.273438-3.199219h-91.007812c-3.457032-1.21875-7.296875.105469-9.265625 3.199219-22.792969 36.195312-66.78125 52.941406-107.875 41.070312-41.089844-11.871094-69.371094-49.496094-69.355469-92.269531-.0625-25.480469 10.03125-49.933594 28.050781-67.949219 18.015625-18.019531 42.46875-28.113281 67.949219-28.050781h272c4.949219-.007813 9.890625.363281 14.785156 1.105469 49.667969 7.597656 85.078125 52.210937 81.199219 102.308593-3.882813 50.097657-45.738281 88.726563-95.984375 88.585938zm0 0"/><path d="m112 128.136719c-48.601562 0-88 39.398437-88 88 0 48.601562 39.398438 88 88 88s88-39.398438 88-88c-.058594-48.578125-39.421875-87.941407-88-88zm0 160c-39.765625 0-72-32.234375-72-72s32.234375-72 72-72 72 32.234375 72 72c-.046875 39.746093-32.253906 71.953125-72 72zm0 0"/><path d="m384 128.136719c-48.601562 0-88 39.398437-88 88 0 48.601562 39.398438 88 88 88s88-39.398438 88-88c-.058594-48.578125-39.421875-87.941407-88-88zm0 160c-39.765625 0-72-32.234375-72-72s32.234375-72 72-72 72 32.234375 72 72c-.046875 39.746093-32.253906 71.953125-72 72zm0 0"/><path d="m136 192.136719v-24c0-4.417969-3.582031-8-8-8h-32c-4.417969 0-8 3.582031-8 8v24h-24c-4.417969 0-8 3.582031-8 8v32c0 4.417969 3.582031 8 8 8h24v24c0 4.417969 3.582031 8 8 8h32c4.417969 0 8-3.582031 8-8v-24h24c4.417969 0 8-3.582031 8-8v-32c0-4.417969-3.582031-8-8-8zm16 32h-24c-4.417969 0-8 3.582031-8 8v24h-16v-24c0-4.417969-3.582031-8-8-8h-24v-16h24c4.417969 0 8-3.582031 8-8v-24h16v24c0 4.417969 3.582031 8 8 8h24zm0 0"/><path d="m399.601562 186.480469c9.371094-9.371094 9.371094-24.570313 0-33.945313-9.375-9.371094-24.570312-9.371094-33.945312 0l-45.257812 45.257813c-9.371094 9.375-9.371094 24.570312 0 33.945312 9.375 9.371094 24.574218 9.371094 33.945312 0zm-45.257812 11.3125c-1.949219-1.917969-4.21875-3.480469-6.703125-4.617188l13.398437-13.398437c2.25 5.039062 6.28125 9.070312 11.320313 11.320312l-13.398437 13.398438c-1.140626-2.484375-2.703126-4.75-4.617188-6.703125zm28.289062-36.28125c3.816407.007812 7.097657 2.710937 7.835938 6.453125.738281 3.746094-1.273438 7.488281-4.800781 8.945312-3.527344 1.453125-7.59375.214844-9.707031-2.960937-2.117188-3.175781-1.695313-7.40625 1.007812-10.101563 1.503906-1.5 3.539062-2.339844 5.664062-2.335937zm-50.921874 58.914062c-3.121094-3.125-3.117188-8.191406.003906-11.3125 3.125-3.121093 8.1875-3.121093 11.3125 0 3.125 3.121094 3.125 8.1875.003906 11.3125-1.5 1.5-3.535156 2.34375-5.660156 2.34375-2.121094 0-4.160156-.84375-5.660156-2.34375zm0 0"/><path d="m447.601562 200.535156c-9.375-9.371094-24.574218-9.371094-33.945312 0l-45.257812 45.257813c-9.371094 9.375-9.371094 24.570312 0 33.945312 9.375 9.371094 24.574218 9.371094 33.945312 0l45.234375-45.234375c4.511719-4.496094 7.046875-10.605468 7.054687-16.976562.003907-6.375-2.527343-12.484375-7.03125-16.992188zm-45.257812 45.257813c-1.953125-1.914063-4.21875-3.476563-6.703125-4.617188l13.398437-13.398437c2.25 5.039062 6.28125 9.070312 11.320313 11.320312l-13.398437 13.398438c-1.140626-2.484375-2.703126-4.75-4.617188-6.703125zm28.289062-36.28125c3.816407.007812 7.097657 2.710937 7.835938 6.453125.738281 3.746094-1.273438 7.488281-4.800781 8.945312-3.527344 1.453125-7.59375.214844-9.707031-2.960937-2.117188-3.175781-1.695313-7.40625 1.007812-10.101563 1.503906-1.5 3.539062-2.339844 5.664062-2.335937zm-50.921874 58.914062c-3.121094-3.125-3.117188-8.191406.003906-11.3125 3.125-3.121093 8.1875-3.121093 11.3125 0 3.125 3.121094 3.125 8.1875.003906 11.3125-1.5 1.5-3.535156 2.34375-5.660156 2.34375-2.121094 0-4.160156-.84375-5.660156-2.34375zm0 0"/><path d="m245.65625 210.480469c-3.125-3.121094-8.1875-3.121094-11.3125 0l-24 24c-2.078125 2.007812-2.914062 4.984375-2.179688 7.78125.730469 2.796875 2.914063 4.980469 5.710938 5.710937 2.796875.734375 5.773438-.101562 7.78125-2.179687l24-24c3.125-3.125 3.125-8.1875 0-11.3125zm0 0"/><path d="m274.34375 210.480469-24 24c-2.078125 2.007812-2.914062 4.984375-2.179688 7.78125.730469 2.796875 2.914063 4.980469 5.710938 5.710937 2.796875.734375 5.773438-.101562 7.78125-2.179687l24-24c3.03125-3.140625 2.988281-8.128907-.097656-11.214844-3.085938-3.085937-8.074219-3.128906-11.214844-.097656zm0 0"/></g></svg>